<?xml version="1.0" standalone="no"?><!DOCTYPE svg PUBLIC "-//W3C//DTD SVG 1.1//EN" "http://www.w3.org/Graphics/SVG/1.1/DTD/svg11.dtd"><svg class="icon" width="200px" height="200.00px" viewBox="0 0 1024 1024" version="1.1" xmlns="http://www.w3.org/2000/svg"><path fill="#333333" d="M1007.4 225.69999999c-4.6-5.90000001-11.70000001-9.70000001-19.2-9.7L201.2 215.99999999 167.8 40.50000001C165.6 29 155.49999999 21 143.69999999 21L34 21C20.49999999 21 9.6 32 9.6 45.49999999S20.49999999 70 34 70l89.50000001 0L155 245.4c0 0.10000001 0 0.2 0 0.4l98.8 513.6C256 770.90000001 267 779 278.69999999 779l587.2 0c13.50000001 0 24.50000001-11 24.50000001-24.50000001s-11-24.50000001-24.50000001-24.49999999L298.89999999 730l-15.09999999-77.2 612.30000001 3.2c0 0 0 0 0 0 11.30000001 0 21.2-9.50000001 23.8-20.50000001l92-388.99999998C1013.70000001 239.09999999 1012 231.49999999 1007.4 225.69999999zM876.8 603.70000001l-602.30000001-1.20000002-44.6-233.89999999L210.49999999 266l746.8 0L876.8 603.70000001z"  /><path fill="#333333" d="M353.09999999 829.4c-47.2 0-85.6 38.4-85.59999998 85.6s38.4 85.6 85.59999998 85.6c47.2 0 85.6-38.4 85.60000002-85.6S400.29999999 829.4 353.09999999 829.4zM353.09999999 951.8c-20.2 0-36.70000001-16.50000001-36.69999999-36.70000001 0-20.2 16.50000001-36.70000001 36.69999999-36.69999998 20.2 0 36.70000001 16.50000001 36.70000001 36.7C389.8 935.30000001 373.29999998 951.8 353.09999999 951.8z"  /><path fill="#333333" d="M769 829.4c-47.2 0-85.6 38.4-85.6 85.6s38.4 85.6 85.6 85.6c47.2 0 85.6-38.4 85.6-85.6S816.30000001 829.4 769 829.4zM769 951.8c-20.2 0-36.70000001-16.50000001-36.70000001-36.70000001 0-20.2 16.50000001-36.70000001 36.70000001-36.69999998 20.2 0 36.70000001 16.50000001 36.70000001 36.7C805.70000001 935.30000001 789.30000001 951.8 769 951.8z"  /></svg>